<svg
  width="694"
  height="694"
  viewBox="0 0 694 694"
  fill="none"
  xmlns="http://www.w3.org/2000/svg"
>
  <path
    d="M462 347V447H562H662V347V247H562H462V347ZM625.636 339.614C627.568 340.239 630.068 341.375 631.205 342.114C634.273 344.102 640.977 351.375 640.977 352.739C640.977 353.25 627.511 362.341 626.773 362.341C626.545 362.341 625.466 361.205 624.443 359.784C623.364 358.364 621.489 356.716 620.182 356.091C617.455 354.727 612.114 354.557 609.784 355.75C606.432 357.511 605.068 361.773 606.659 365.636C607.795 368.534 610.239 370.352 617.114 373.42C619.784 374.614 624.273 376.716 627.057 378.136C640.636 384.841 645.807 391.545 646.489 403.25C647.17 414.159 642.625 422.341 633.193 427.227C627.795 430.068 623.08 431.091 615.636 431.091C603.648 431.034 594.841 427.739 587.852 420.636C585.693 418.42 583.307 415.523 582.568 414.216L581.318 411.886L588.534 407.682C592.568 405.409 596.091 403.534 596.432 403.534C596.773 403.534 598.08 404.784 599.33 406.375C603.534 411.716 608.08 413.989 614.557 414.045C619.727 414.045 622.455 413.25 624.898 410.977C626.602 409.443 626.943 408.648 627.227 406.091C627.739 400.295 625.58 398.364 611.489 391.943C597.739 385.693 592.966 381.886 589.443 374.557C585.977 367.227 586.318 357.17 590.239 350.466C593.477 344.898 599.614 340.58 606.773 338.761C611.261 337.625 620.977 338.08 625.636 339.614ZM576.489 347.568V355.807L563.591 355.977L550.636 356.091V393.023V429.955L541.148 429.841L531.602 429.67V393.023V356.375L518.705 356.205L505.75 356.091V347.568V339.045L541.148 339.159L576.489 339.33V347.568Z"
    fill="#007ACC"
  />
  <path
    d="M121.6 247.667C98 250.333 78.3333 259.867 61.6 276.6C46.6666 291.667 37.9333 307.867 33.8667 328.533C31.8 339.067 31.8 354.933 33.8667 365.467C38 386.133 46.6666 402.4 61.6 417.4C76.6 432.333 92.8666 441 113.533 445.133C124.067 447.2 139.933 447.2 150.467 445.133C171.133 441.067 187.333 432.333 202.4 417.4C217.267 402.533 226 386.133 230.133 365.467C232.2 354.933 232.2 339.067 230.133 328.533C226.067 307.867 217.333 291.667 202.4 276.6C190.4 264.6 179 257.533 163.4 252.333C159.133 250.933 153 249.267 149.667 248.733C142.333 247.4 128.067 246.867 121.6 247.667ZM150.4 270.6C165.267 274.267 176.933 281 188.2 292.4C192.133 296.4 195.333 300 195.267 300.467C195.267 300.933 192.867 303.4 189.933 305.933L184.6 310.533L183.533 308.933C180.933 305.067 170.667 295.667 165.4 292.467C145.267 280.133 119.4 280 99.2 292.067C88.6 298.4 77.5333 311 73.3333 321.4L71.8 325.133L112.867 366.2L153.867 407.2L158.133 405.4C168.667 400.8 179.933 391 186.333 380.733C189.267 376 193.933 365.333 194 363.133C194 362.533 190.2 362.333 177 362.333H160V354.667V347H185.4H210.867L210.4 352.8C209.467 365 205.133 378.133 198.6 388.733C193.733 396.6 182.933 407.6 175 412.733C168.467 416.933 159.733 421 153.6 422.6L149.667 423.667L102.467 376.467L55.2 329.2L56.4 325.267C62.6666 303.467 79.9333 283.867 100.733 274.867C106.733 272.333 114.6 270.067 121.267 269C128.067 267.933 142.867 268.733 150.4 270.6ZM130.533 425.267C130.733 426.2 120.533 425.067 113.4 423.333C89.9333 417.667 69.4 400.333 59.8666 378.2C56.2 369.667 53.4 357.667 53.3333 350.333C53.3333 348.133 54.8 349.467 91.8666 386.333C113.133 407.4 130.533 424.933 130.533 425.267Z"
    fill="#744C9F"
  />
  <path
    d="M347 287C320.333 287 303.667 300.333 297 327C307 313.667 318.667 308.667 332 312C339.607 313.902 345.045 319.421 351.063 325.53C360.868 335.482 372.215 347 397 347C423.667 347 440.333 333.667 447 307C437 320.333 425.333 325.333 412 322C404.393 320.098 398.955 314.579 392.937 308.47C383.132 298.518 371.785 287 347 287ZM297 347C270.333 347 253.667 360.333 247 387C257 373.667 268.667 368.667 282 372C289.607 373.902 295.045 379.421 301.063 385.53C310.868 395.482 322.215 407 347 407C373.667 407 390.333 393.667 397 367C387 380.333 375.333 385.333 362 382C354.393 380.098 348.955 374.579 342.937 368.47C333.132 358.518 321.785 347 297 347Z"
    fill="url(#favicon)"
  />
  <defs>
    <linearGradient
      id="favicon"
      x1="241.444"
      y1="325.4"
      x2="414.177"
      y2="424.994"
      gradientUnits="userSpaceOnUse"
    >
      <stop stop-color="#2298BD" />
      <stop offset="1" stop-color="#0ED7B5" />
    </linearGradient>
  </defs>
</svg>
